<svg xmlns="http://www.w3.org/2000/svg" aria-hidden="true" style="position:absolute;width:0;height:0;overflow:hidden">
  <defs>
    <symbol id="icon-github" viewBox="0 0 32 32">
      <path d="M15.748 0C7.047 0 0 7.047 0 15.748c0 6.969 4.508 12.855 10.768 14.941.787.138 1.083-.335 1.083-.748 0-.374-.02-1.614-.02-2.933-3.957.728-4.98-.964-5.295-1.85-.177-.453-.945-1.85-1.614-2.224-.551-.295-1.339-1.024-.02-1.043 1.24-.02 2.126 1.142 2.421 1.614 1.417 2.382 3.681 1.713 4.587 1.299.138-1.024.551-1.713 1.004-2.106-3.504-.394-7.166-1.752-7.166-7.776 0-1.713.61-3.13 1.614-4.232-.157-.394-.709-2.008.157-4.173 0 0 1.319-.413 4.331 1.614 1.26-.354 2.598-.532 3.937-.532s2.677.177 3.937.532c3.012-2.047 4.331-1.614 4.331-1.614.866 2.165.315 3.78.157 4.173 1.004 1.102 1.614 2.5 1.614 4.232 0 6.044-3.681 7.382-7.185 7.776.571.492 1.063 1.437 1.063 2.913 0 2.106-.02 3.799-.02 4.331 0 .413.295.905 1.083.748a15.772 15.772 0 0 0 10.729-14.941c0-8.701-7.047-15.748-15.748-15.748z"/>
    </symbol>
    <symbol id="icon-linkedin" viewBox="0 0 32 32">
      <path d="M7.931 4.229c-1.459 0-2.646 1.185-2.646 2.642s1.187 2.644 2.646 2.644a2.643 2.643 0 0 0 0-5.286zm-2.284 7.289v14.66h4.56l.002-14.66H5.647zm7.421-.002v14.66l4.55.002.002-7.254c0-1.862.324-3.765 2.73-3.765 2.369 0 2.369 2.246 2.369 3.886v7.131l4.555-.002v-8.039c0-3.628-.662-6.985-5.466-6.985-2.256 0-3.732 1.275-4.311 2.367h-.064v-2.003h-4.365zM29.543 30.72H3.362c-1.249 0-2.265-.995-2.265-2.217V2.215C1.097.993 2.113 0 3.362 0h26.181c1.254 0 2.274.994 2.274 2.215v26.288c0 1.222-1.02 2.217-2.274 2.217z"/>
    </symbol>
  </defs>
</svg>